# xmcd CD database file
#
# Track frame offsets:
#	150
#	16569
#	31997
#	47470
#	63089
#	80421
#	98810
#	115404
#	131403
#	147162
#	165674
#
# Disc length: 2427 seconds
#
# Revision: 1
# Processed by: cddbd v1.5PL3 Copyright (c) Steve Scherf et al.
# Submitted via: Feurio! 1.67 - http://www.feurio.com
#
DISCID=7e09790b
DTITLE=Jeannine - Verschlossene Türen
DYEAR=2002
DGENRE=Pop
TTITLE0=Lass´ mich allein
TTITLE1=Das kann kein Zufall sein
TTITLE2=Hasta la vista
TTITLE3=Viel zu lang
TTITLE4=Baby Joe
TTITLE5=Verschlossene Türen
TTITLE6=Kleine Träume
TTITLE7=Liebe lebt
TTITLE8=In einer Nacht wie dieser
TTITLE9=Bleib bei mir
TTITLE10=Lieb´ mich (Remix 2002)
EXTD=
EXTT0=
EXTT1=
EXTT2=
EXTT3=
EXTT4=
EXTT5=
EXTT6=
EXTT7=
EXTT8=
EXTT9=
EXTT10=
PLAYORDER=
